<svg xmlns="http://www.w3.org/2000/svg" viewBox="0 0 32 32">
  <rect width="32" height="32" rx="8" fill="#ecfdf5"/>
  <path d="M16 28V13" stroke="#047857" stroke-width="2.25" stroke-linecap="round"/>
  <path
    d="M16 15.5C10 14 6 9 6 4c0 0 5.5 1 10 7.5"
    stroke="#065f46"
    stroke-width="1.75"
    stroke-linecap="round"
    stroke-linejoin="round"
    fill="#34d399"
    fill-opacity="0.35"
  />
  <path
    d="M16 15.5C22 14 26 9 26 4c0 0-5.5 1-10 7.5"
    stroke="#065f46"
    stroke-width="1.75"
    stroke-linecap="round"
    stroke-linejoin="round"
    fill="#34d399"
    fill-opacity="0.35"
  />
  <path
    d="M16 8c-2.5 2-4 5.5-4 9.5 0 3 1.5 5 4 6"
    stroke="#047857"
    stroke-width="1.5"
    stroke-linecap="round"
    fill="#6ee7b7"
    fill-opacity="0.25"
  />
  <path
    d="M16 8c2.5 2 4 5.5 4 9.5 0 3-1.5 5-4 6"
    stroke="#047857"
    stroke-width="1.5"
    stroke-linecap="round"
    fill="#6ee7b7"
    fill-opacity="0.25"
  />
</svg>
